# xmcd
# 
# Track frame offsets:
#     150
#     8251
#     26282
#     43534
#     74679
#     94614
#     117637
#     157917
#     180617
#     199852
#     215442
#     236277
#     254009
#     269712
#     294381
# 
# Disc length: 4350
# 
# Revision: 3
# Processed by: cddbd v1.5.2PL0 Copyright (c) Steve Scherf et al.
# Submitted via: fre:ac v1.0.31
# 
DISCID=d010fc0f
DTITLE=SERGENT_GARCIA - La_Semilla_Escondida
DYEAR=2003
DGENRE=Salsa
TTITLE0=Que me pongan donde hay
TTITLE1=Long time
TTITLE2=Revolucion
TTITLE3=El asalto
TTITLE4=Mi ultima voluntad
TTITLE5=Equilibre est fragile
TTITLE6=El regreso
TTITLE7=Nada tiene final
TTITLE8=Que corra la voz
TTITLE9=Herencia Africana
TTITLE10=Yo se que te gusta
TTITLE11=Tu no sabes na'
TTITLE12=Poetas
TTITLE13=Viva la felicidad
TTITLE14=Data
EXTD=YEAR: 2003
EXTT0=
EXTT1=
EXTT2=
EXTT3=
EXTT4=
EXTT5=
EXTT6=
EXTT7=
EXTT8=
EXTT9=
EXTT10=
EXTT11=
EXTT12=
EXTT13=
EXTT14=
PLAYORDER=
